<?xml version="1.0" standalone="no"?>
<!DOCTYPE svg PUBLIC "-//W3C//DTD SVG 20010904//EN"
 "http://www.w3.org/TR/2001/REC-SVG-20010904/DTD/svg10.dtd">
<svg version="1.0" xmlns="http://www.w3.org/2000/svg"
 width="300.000000pt" height="307.000000pt" viewBox="0 0 300.000000 307.000000"
 preserveAspectRatio="xMidYMid meet">
<metadata>
Created by potrace 1.10, written by Peter Selinger 2001-2011
</metadata>
<g transform="translate(0.000000,307.000000) scale(0.100000,-0.100000)"
fill="#000000" stroke="none">
<path d="M1075 2982 c-82 -48 -356 -207 -609 -352 -252 -146 -461 -271 -464
-279 -5 -13 14 -31 33 -31 6 1 1 7 -9 15 -18 14 -15 16 45 45 35 16 96 50 134
74 39 25 73 45 77 46 4 0 24 11 44 25 21 14 42 24 47 22 5 -1 23 10 39 25 17
15 36 28 43 28 7 0 29 11 49 25 20 13 36 22 36 19 0 -2 10 4 22 16 12 11 25
20 30 20 4 0 37 18 73 40 36 22 72 40 79 40 8 0 16 3 18 8 3 8 64 52 72 52 3
0 34 17 69 39 35 21 83 49 108 63 154 83 253 149 223 148 -5 -1 -76 -40 -159
-88z"/>
<path d="M1350 3051 c-14 -10 -56 -35 -95 -56 -38 -21 -87 -49 -107 -62 -21
-13 -38 -20 -38 -16 0 5 -4 4 -8 -2 -8 -12 -36 -30 -72 -48 -42 -20 -124 -70
-141 -84 -9 -8 -26 -15 -37 -16 -11 0 -19 -4 -17 -7 2 -4 -14 -17 -35 -29 -22
-12 -40 -19 -40 -15 0 4 -7 -1 -15 -12 -8 -10 -15 -15 -15 -10 0 5 -10 0 -22
-11 -13 -11 -54 -37 -93 -59 -38 -21 -83 -47 -100 -56 -16 -9 -42 -22 -57 -29
-16 -6 -28 -14 -28 -19 0 -4 -8 -10 -17 -13 -23 -7 -137 -72 -173 -97 -16 -11
-31 -20 -35 -20 -3 0 -33 -18 -67 -41 -33 -22 -67 -38 -74 -35 -8 3 -14 1 -14
-4 0 -6 3 -10 8 -10 4 0 8 -340 9 -756 l3 -756 29 -28 c16 -16 32 -26 35 -23
3 4 6 0 6 -7 0 -7 3 -10 7 -7 3 4 13 1 22 -7 9 -7 41 -27 71 -43 30 -16 73
-41 95 -55 22 -14 50 -28 63 -32 12 -4 22 -12 22 -17 0 -5 6 -9 13 -9 8 0 33
-14 55 -30 23 -17 42 -28 42 -25 0 3 11 -2 25 -11 14 -9 22 -21 18 -27 -3 -6
-1 -7 5 -3 11 6 79 -27 164 -81 21 -12 41 -23 46 -23 5 0 17 -9 27 -20 10 -11
23 -20 28 -20 6 0 57 -27 114 -60 56 -33 105 -60 107 -60 9 0 111 -65 114 -72
2 -5 10 -8 18 -8 8 0 17 -7 20 -15 4 -8 9 -13 13 -11 3 2 24 -7 46 -20 22 -13
56 -30 75 -39 19 -9 37 -20 41 -26 3 -6 16 -9 28 -7 20 3 -127 89 -1146 677
l-183 105 0 760 0 761 333 192 c316 182 942 543 976 563 14 8 13 9 -4 9 -11 0
-31 -8 -45 -18z"/>
<path d="M1615 3058 c31 -17 1064 -612 1198 -689 64 -38 117 -65 117 -61 0 4
-76 50 -168 103 -92 54 -266 154 -387 224 -121 71 -240 139 -264 153 -25 14
-68 38 -95 55 -28 16 -76 43 -106 60 -30 17 -67 38 -82 49 -14 10 -28 18 -31
18 -3 0 -42 23 -86 50 -44 28 -89 50 -98 50 -16 -1 -16 -2 2 -12z"/>
<path d="M1800 3039 c19 -16 46 -36 60 -43 95 -50 116 -63 127 -76 7 -8 13
-12 13 -7 0 4 18 -4 40 -18 22 -14 42 -25 45 -25 2 0 35 -19 72 -41 38 -23 97
-58 133 -77 36 -19 79 -44 95 -57 17 -12 40 -25 52 -29 13 -4 29 -13 36 -19 7
-7 34 -23 60 -37 26 -13 47 -28 47 -32 0 -5 6 -8 14 -8 22 0 251 -139 248
-151 -1 -6 2 -8 7 -4 10 6 111 -43 123 -60 5 -7 8 -7 9 0 1 6 5 -6 9 -25 l7
-35 2 36 1 37 -609 351 c-334 193 -612 351 -617 351 -5 -1 7 -14 26 -31z"/>
<path d="M2994 2740 c0 -184 2 -260 3 -167 2 92 2 242 0 335 -1 92 -3 16 -3
-168z"/>
<path d="M1509 2835 c-3 -5 -7 -285 -8 -622 l-3 -611 61 -34 c33 -18 61 -36
61 -39 0 -3 -26 -20 -57 -38 -32 -17 -85 -47 -118 -67 -33 -19 -70 -40 -82
-46 -30 -15 -32 -64 -2 -73 30 -10 39 -45 39 -162 0 -103 6 -136 12 -59 l2 37
57 -4 c59 -5 106 -24 129 -52 12 -14 10 -20 -13 -43 -23 -22 -37 -27 -96 -30
-60 -4 -72 -1 -90 17 -12 12 -26 19 -30 16 -5 -3 -20 4 -32 14 -19 16 -22 22
-11 32 7 8 12 38 12 71 0 57 0 58 -40 78 -24 12 -49 18 -63 15 -22 -6 -24 -3
-26 44 -1 27 3 52 9 56 6 3 40 -10 75 -30 49 -27 66 -43 71 -63 10 -45 12 -48
13 -16 1 31 -22 60 -67 83 -12 7 -20 16 -17 21 3 5 -4 14 -16 20 -15 8 -19 9
-15 1 9 -14 0 -14 -25 0 -11 5 -17 14 -14 19 3 6 0 7 -8 4 -19 -7 -27 -58 -27
-182 l0 -102 33 -20 c17 -11 34 -20 37 -20 8 0 -1 110 -8 110 -4 0 -18 9 -31
19 l-24 19 31 16 c29 15 33 15 66 -5 34 -20 36 -24 36 -75 0 -30 -4 -54 -8
-54 -5 0 -17 -6 -27 -14 -18 -13 -16 -16 39 -42 32 -15 61 -35 63 -45 6 -20
32 -29 91 -29 62 0 109 23 128 63 15 32 15 36 -1 61 -22 33 -64 56 -105 56
-28 0 -30 2 -30 40 l0 39 113 -65 c61 -36 160 -94 219 -127 l108 -62 0 -112
c0 -112 0 -112 27 -127 20 -10 33 -11 50 -3 21 9 23 16 25 125 l3 115 73 43
72 43 0 -79 c0 -78 1 -80 30 -95 24 -13 33 -13 50 -3 18 12 20 23 20 126 0
109 1 113 24 123 24 11 39 57 27 78 -4 5 -34 -8 -69 -28 -86 -52 -92 -63 -9
-17 67 37 67 37 67 13 0 -15 -9 -28 -25 -37 -24 -13 -25 -16 -25 -120 0 -78
-4 -111 -13 -119 -8 -6 -17 -7 -21 -3 -4 4 -13 7 -19 7 -8 0 -13 27 -15 78 -2
45 1 77 7 77 5 0 12 -6 14 -12 3 -7 6 -3 6 10 1 19 -3 22 -26 16 -16 -3 -62
-25 -103 -48 l-75 -41 -5 -112 c-3 -62 -9 -116 -15 -122 -6 -5 -19 -5 -32 0
-22 8 -23 14 -23 112 0 68 -4 108 -12 119 -7 8 -51 37 -98 63 -47 27 -123 71
-168 97 -116 67 -211 118 -220 118 -4 0 1 -5 11 -11 12 -7 17 -23 17 -54 0
-38 -3 -45 -20 -45 -17 0 -20 7 -22 53 l-1 52 -7 -55 -7 -55 -1 76 c-2 66 -5
78 -27 99 -14 13 -23 25 -21 28 6 5 70 -30 74 -40 2 -5 7 -8 12 -8 5 0 66 -33
137 -74 369 -212 367 -211 373 -236 l6 -25 6 26 c5 25 -7 33 -266 183 -149 86
-288 166 -309 179 l-39 24 133 78 c73 44 143 90 155 102 23 23 21 30 -5 14
-13 -8 -54 11 -110 51 l-24 17 6 446 c3 245 9 450 12 455 3 5 1 11 -3 14 -5 3
-6 25 -3 48 7 50 -1 268 -10 253z m-269 -1694 c14 -27 13 -51 -4 -51 -15 0
-26 21 -26 51 0 25 16 24 30 0z"/>
<path d="M1962 2519 c-38 -21 -52 -35 -48 -45 3 -9 6 -136 6 -283 l0 -267 28
-15 c15 -9 123 -72 240 -140 118 -68 221 -124 229 -125 21 -3 55 20 45 31 -4
5 -1 5 5 1 7 -4 22 -2 34 4 20 11 21 15 17 299 l-3 288 -246 142 c-135 77
-248 141 -250 141 -2 0 -28 -14 -57 -31z m160 -41 c45 -26 220 -127 348 -200
19 -11 36 -22 38 -23 2 -2 -14 -15 -35 -29 -23 -16 -31 -26 -21 -26 9 0 20 5
23 10 18 28 25 -14 24 -140 -1 -76 2 -143 5 -148 3 -6 2 -20 -2 -33 -5 -13 -6
-38 -2 -56 5 -22 4 -33 -3 -33 -8 0 -8 -3 0 -11 21 -21 -16 -105 -42 -95 -7 2
-12 -3 -11 -12 0 -9 -7 -18 -16 -20 -17 -3 -18 15 -18 265 l0 268 -213 122
c-116 68 -227 132 -246 144 l-35 21 50 27 c55 31 52 31 156 -31z m-132 -70 c3
-4 22 -14 42 -22 44 -19 64 -43 27 -32 -70 19 -72 17 -21 -18 30 -20 55 -36
57 -36 1 0 56 -31 121 -69 l119 -69 3 -141 c1 -78 1 -141 -2 -141 -2 0 -58 32
-125 71 l-121 71 0 122 c0 120 -11 173 -26 131 -4 -11 -12 -23 -18 -27 -8 -6
-8 -8 0 -8 15 0 16 -61 1 -79 -10 -12 -9 -13 1 -7 22 13 12 -104 -11 -129 -20
-22 -8 -32 21 -16 15 8 23 6 36 -8 10 -11 31 -25 47 -31 16 -7 29 -16 29 -21
0 -5 7 -9 15 -9 8 0 24 -9 35 -20 11 -11 42 -27 69 -36 l49 -16 4 -51 c5 -60
3 -65 -20 -51 -9 6 -90 53 -179 104 l-163 93 0 206 c0 121 -4 200 -9 191 -12
-21 -19 -310 -8 -310 5 0 3 -8 -4 -17 -10 -11 -10 -14 -1 -9 6 4 12 2 12 -3 0
-6 -4 -11 -10 -11 -5 0 -10 -9 -10 -21 0 -11 4 -17 10 -14 5 3 7 0 4 -8 -3 -9
7 -20 28 -30 18 -9 29 -17 24 -17 -5 0 15 -13 45 -28 30 -15 73 -40 96 -55 24
-15 47 -27 53 -27 6 0 8 -5 4 -11 -4 -7 -1 -10 7 -7 8 3 24 -3 35 -14 13 -11
38 -20 60 -21 37 -2 38 -1 53 48 l16 50 5 -75 c4 -57 2 -78 -9 -87 -12 -10
-18 -10 -33 4 -11 9 -26 18 -35 19 -9 2 -19 8 -23 14 -4 6 -13 12 -21 14 -17
2 -151 80 -194 112 -16 12 -40 25 -52 29 -13 3 -23 10 -23 15 0 4 -11 11 -24
14 -13 3 -26 13 -30 21 -3 8 -6 108 -6 222 -1 317 -4 285 23 271 12 -7 24 -16
27 -20z m395 -264 c5 -25 4 -26 -4 -8 -5 12 -14 25 -20 29 -6 3 -11 13 -11 21
0 26 28 -9 35 -42z"/>
<path d="M2920 1538 l0 -755 -317 -185 c-971 -563 -1022 -593 -1001 -596 11
-2 23 0 27 5 3 6 29 22 56 38 28 16 94 55 147 87 54 32 102 58 108 58 6 0 19
8 30 18 10 9 40 28 67 42 26 14 83 47 126 73 44 27 86 51 96 54 9 4 28 14 42
24 14 10 29 16 33 12 3 -3 6 -2 6 3 0 5 17 18 38 29 20 10 44 24 52 31 33 26
109 62 116 56 4 -4 4 -2 1 4 -4 6 14 21 41 34 26 13 66 36 90 52 23 16 59 37
80 46 20 9 51 27 69 40 17 12 35 22 40 22 24 0 63 49 65 84 2 20 7 36 12 36 6
0 5 5 -2 12 -15 15 -16 65 -1 74 8 4 7 9 -2 15 -11 7 -11 9 -1 9 7 0 10 5 7
11 -7 10 -9 201 -5 340 2 42 0 82 -4 88 -4 6 -3 11 3 11 8 0 5 59 -5 69 -2 2
1 11 8 18 9 11 9 17 -3 24 -8 5 -9 9 -4 9 13 0 8 741 -5 754 -7 7 -10 -264
-10 -746z"/>
<path d="M878 2117 l-228 -132 0 -437 0 -436 35 -22 35 -22 35 22 35 22 0 396
0 397 103 57 c56 31 111 64 122 72 20 16 20 16 0 13 -28 -4 -210 -105 -232
-129 -16 -18 -17 -48 -17 -336 1 -174 4 -347 7 -383 6 -72 3 -80 -30 -98 l-23
-12 -1 393 c-1 216 0 409 1 428 1 29 -4 39 -24 50 -14 7 -26 16 -26 19 0 3 53
35 117 71 64 36 155 88 203 117 88 52 150 77 136 55 -4 -8 -2 -10 7 -6 32 12
26 -17 -7 -37 -43 -25 -48 -36 -7 -14 17 8 32 12 34 7 3 -4 5 -184 5 -400 1
-216 4 -397 7 -403 4 -5 1 -9 -4 -9 -6 0 -11 -7 -11 -15 0 -8 -9 -19 -20 -25
-18 -9 -20 -7 -21 17 -1 17 -3 21 -6 11 -2 -10 -11 -18 -18 -18 -10 0 -13 13
-10 51 1 28 6 53 10 57 4 4 6 -9 3 -29 -2 -21 1 -36 7 -36 8 0 11 109 10 354
0 194 -1 353 -3 353 -2 0 -16 -7 -32 -15 l-30 -16 0 -358 0 -359 -101 -57
c-55 -32 -110 -66 -122 -77 -30 -26 104 45 175 92 56 37 57 37 85 20 27 -17
29 -17 66 3 l37 21 0 438 0 438 -32 20 c-18 11 -35 20 -38 20 -3 -1 -107 -60
-232 -133z m-173 -608 c3 -404 3 -412 -15 -388 -18 22 -19 50 -19 407 0 211 3
390 6 398 19 49 25 -42 28 -417z m385 151 c0 -115 -3 -210 -7 -210 -5 0 -7 91
-7 203 2 222 2 217 9 217 3 0 5 -94 5 -210z"/>
<path d="M1016 2116 c-42 -24 -54 -35 -42 -39 9 -4 16 -2 16 3 0 5 20 21 45
36 25 14 45 28 45 30 0 6 -2 5 -64 -30z"/>
<path d="M1580 1827 l0 -203 133 -77 c74 -42 136 -77 140 -77 3 0 7 6 10 13 2
6 3 4 2 -5 -2 -12 38 -40 144 -101 249 -143 293 -167 305 -167 14 0 -104 75
-133 85 -20 6 -21 11 -21 204 0 195 0 198 -22 208 -55 25 -514 295 -524 308
-30 39 -34 15 -34 -188z m139 106 c41 -25 90 -54 110 -65 68 -39 162 -93 179
-103 9 -6 45 -25 79 -44 l62 -33 0 -184 c0 -101 -2 -184 -5 -184 -12 0 -64 31
-64 38 0 7 -53 33 -72 36 -4 0 -17 9 -28 19 -11 9 -23 17 -26 17 -12 0 -75 42
-70 47 4 5 47 -15 56 -26 18 -21 151 -83 166 -77 20 8 33 185 19 265 -6 38
-32 60 -135 118 -19 11 -78 44 -130 73 -52 30 -97 56 -100 59 -3 4 -29 17 -57
30 -114 53 -51 9 172 -119 l234 -135 1 -142 c0 -79 -2 -143 -5 -143 -3 0 -111
61 -240 136 l-235 136 -1 141 c-1 101 -4 127 -9 92 -4 -27 -5 -93 -3 -145 4
-74 8 -98 21 -108 9 -7 25 -19 35 -28 10 -8 29 -20 43 -26 13 -6 24 -15 24
-20 0 -5 -33 9 -72 31 l-73 40 -3 173 c-1 95 0 178 3 186 6 15 11 12 124 -55z
m71 -398 c7 -8 18 -15 25 -15 7 0 19 -8 26 -17 9 -11 -4 -7 -36 11 -61 35 -62
36 -43 36 9 0 21 -7 28 -15z"/>
<path d="M1842 1448 c-1 -9 -27 -32 -57 -50 -30 -18 -55 -36 -55 -40 0 -4 18
-18 40 -31 22 -13 37 -27 33 -32 -5 -4 -3 -5 3 -2 7 4 32 -5 57 -19 l46 -25
55 31 c31 18 56 36 56 41 0 6 -14 18 -32 27 -17 9 -42 27 -55 39 -13 12 -23
19 -23 15 0 -16 17 -30 60 -52 40 -21 43 -24 26 -34 -10 -6 -33 -20 -50 -32
l-32 -21 -82 46 c-45 25 -82 48 -82 51 0 5 75 50 84 50 3 0 3 -8 -1 -17 -4
-14 -3 -15 6 -7 7 7 11 26 8 45 -2 19 -5 26 -5 17z"/>
<path d="M1617 1369 c-18 -11 -14 -29 6 -29 7 0 6 4 -3 10 -40 26 12 5 77 -30
74 -41 102 -49 38 -11 -19 11 -35 27 -35 35 0 18 -27 29 -34 13 -2 -7 -5 -4
-5 6 -1 19 -17 22 -44 6z"/>
<path d="M1557 1332 c-15 -9 -27 -19 -27 -22 0 -3 62 -41 138 -84 l137 -79 54
29 c52 29 65 44 40 53 -6 2 -9 -1 -5 -7 5 -8 -33 -42 -49 -42 -8 0 -1 24 10
32 15 12 -7 10 -25 -2 -8 -5 -10 -10 -4 -10 14 0 14 -28 0 -33 -12 -5 -54 17
-188 97 -68 40 -79 50 -64 58 10 5 20 7 23 4 4 -3 0 -6 -8 -6 -18 0 3 -14 125
-84 54 -31 101 -55 103 -52 3 2 -18 17 -47 31 -29 14 -50 29 -47 31 3 3 23 -4
46 -16 23 -11 41 -18 41 -15 0 2 -18 14 -41 25 -23 12 -39 24 -36 26 3 3 24
-4 47 -16 23 -12 44 -20 46 -18 2 2 -22 16 -52 31 -31 15 -53 23 -49 17 9 -14
-1 -13 -36 6 -17 8 -28 18 -25 21 7 8 -13 33 -26 33 -5 0 -6 -4 -3 -10 9 -14
-7 -12 -31 4 -17 12 -23 12 -47 -2z m92 -23 c-8 -4 3 -15 30 -29 24 -12 41
-24 38 -27 -5 -4 -117 54 -117 61 0 1 14 3 30 3 18 0 26 -4 19 -8z"/>
<path d="M2993 1260 c0 -41 2 -58 4 -37 2 20 2 54 0 75 -2 20 -4 3 -4 -38z"/>
<path d="M1938 1169 c29 -11 24 -30 -12 -47 -22 -11 -30 -11 -43 0 -14 11 -15
11 -11 -2 7 -22 56 -25 79 -4 10 9 19 28 19 41 0 19 -5 23 -27 22 -28 0 -28 0
-5 -10z"/>
<path d="M2993 1085 c0 -33 2 -45 4 -27 2 18 2 45 0 60 -2 15 -4 0 -4 -33z"/>
<path d="M2330 1126 c0 -8 562 -328 567 -323 2 3 -5 8 -16 12 -19 6 -26 17
-22 39 1 5 -5 6 -14 2 -8 -3 -34 6 -58 19 -23 14 -71 42 -107 62 -36 20 -68
41 -71 46 -3 5 -10 9 -15 10 -5 1 -8 5 -7 9 2 5 0 7 -5 7 -16 -3 -31 2 -44 14
-15 13 -192 107 -202 107 -3 0 -6 -2 -6 -4z"/>
<path d="M2063 1049 c-29 -17 -53 -33 -53 -35 0 -6 71 31 95 50 31 24 15 18
-42 -15z"/>
<path d="M1320 991 c0 -11 9 -21 21 -24 17 -5 20 -11 15 -31 -7 -29 9 -43 29
-26 8 7 26 10 39 8 17 -3 23 -1 19 8 -7 18 -41 24 -47 8 -9 -22 -26 -16 -26 9
0 13 -11 33 -25 45 -23 20 -25 21 -25 3z"/>
<path d="M1612 978 c-13 -16 -40 -35 -59 -43 -31 -13 -34 -18 -31 -52 3 -37
11 -46 84 -89 17 -10 14 -14 -31 -42 l-50 -32 -17 39 c-12 25 -28 43 -49 51
-28 12 -30 16 -24 47 l6 34 -50 -28 c-28 -15 -51 -35 -51 -43 0 -8 41 -38 92
-68 l91 -52 56 33 c31 18 57 39 58 47 2 9 -19 28 -49 45 -43 25 -54 36 -56 60
-2 26 2 32 37 46 21 9 47 29 56 43 24 37 15 40 -13 4z m-166 -177 c55 -50 48
-63 -14 -27 -31 19 -58 39 -60 45 -7 22 44 10 74 -18z"/>
<path d="M2993 955 c0 -33 2 -45 4 -27 2 18 2 45 0 60 -2 15 -4 0 -4 -33z"/>
<path d="M1230 981 c0 -20 50 -71 69 -71 10 1 5 7 -11 16 -15 8 -34 27 -42 42
-9 15 -15 20 -16 13z"/>
<path d="M2992 762 c-1 -18 -6 -31 -11 -28 -5 3 -14 -1 -21 -9 -7 -8 -18 -15
-24 -15 -6 0 -42 -21 -80 -45 -38 -25 -75 -45 -83 -45 -7 0 -13 -4 -13 -10 0
-5 -4 -10 -9 -10 -5 0 -50 -25 -99 -55 -50 -30 -95 -55 -101 -55 -6 0 -11 -4
-11 -10 0 -5 -4 -10 -10 -10 -5 0 -33 -14 -62 -31 -29 -18 -68 -40 -85 -50
-18 -11 -48 -27 -65 -38 -106 -60 -145 -82 -158 -91 -8 -5 -35 -21 -60 -35
-48 -27 -64 -36 -120 -71 -19 -12 -51 -31 -70 -41 -83 -44 -178 -113 -156
-113 6 0 1229 710 1239 720 5 4 7 23 4 41 l-4 34 -1 -33z"/>
<path d="M7 747 c-3 -9 0 -20 6 -25 34 -27 1251 -722 1259 -720 10 4 -69 61
-134 97 -62 34 -99 56 -181 105 -43 25 -81 46 -83 46 -2 0 -21 11 -42 24 -20
12 -86 52 -147 87 -60 35 -118 69 -130 76 -11 7 -29 16 -41 22 -11 5 -51 28
-88 50 -36 23 -69 41 -72 41 -3 0 -37 20 -75 45 -38 25 -72 45 -76 45 -3 0
-39 20 -79 45 -39 25 -77 45 -82 45 -6 0 -15 7 -20 16 -8 14 -10 14 -15 1z"/>
<path d="M2993 85 c0 -38 2 -53 4 -32 2 20 2 52 0 70 -2 17 -4 1 -4 -38z"/>
<path d="M597 3 c18 -2 50 -2 70 0 21 2 7 4 -32 4 -38 0 -55 -2 -38 -4z"/>
<path d="M2698 3 c23 -2 59 -2 80 0 20 2 1 4 -43 4 -44 0 -61 -2 -37 -4z"/>
<path d="M2847 3 c18 -2 50 -2 70 0 21 2 7 4 -32 4 -38 0 -55 -2 -38 -4z"/>
</g>
</svg>
